<svg xmlns="http://www.w3.org/2000/svg" version="1.1" viewBox="-5.0 -10.0 110.0 135.0">
 <path d="m86.398 85.34c-3.1602 1.2109-4.8789 2.9414-6.1016 6.1016-1.2109-3.1602-2.9414-4.8789-6.1016-6.1016 3.1602-1.2109 4.8789-2.9297 6.1016-6.1016 1.2109 3.1602 2.9414 4.8789 6.1016 6.1016zm-5.6602-49.469c2.7383-10.199 6.4805-13.949 16.691-16.691-10.199-2.7383-13.949-6.4805-16.691-16.691-2.7383 10.199-6.4805 13.949-16.691 16.691 10.199 2.7383 13.949 6.4805 16.691 16.691zm2.9805 21.051c0-0.96094-0.5-2.1211-1.8984-2.5117-11.441-3.1992-18.609-6.8516-23.961-12.199-5.3516-5.3516-9.0117-12.52-12.199-23.961-0.39062-1.3984-1.5508-1.8984-2.5117-1.8984-0.96094 0-2.1211 0.5-2.5117 1.8984-3.1992 11.441-6.8516 18.609-12.199 23.961-5.3594 5.3594-12.52 9.0117-23.961 12.199-1.3984 0.39062-1.8984 1.5508-1.8984 2.5117s0.5 2.1211 1.8984 2.5117c11.441 3.1992 18.609 6.8516 23.961 12.199 5.3594 5.3594 9.0117 12.52 12.199 23.961 0.39062 1.3984 1.5508 1.8984 2.5117 1.8984 0.96094 0 2.1211-0.5 2.5117-1.8984 3.1992-11.441 6.8516-18.609 12.199-23.961 5.3594-5.3594 12.52-9.0117 23.961-12.199 1.3984-0.39062 1.8984-1.5508 1.8984-2.5117z"/>
<text x="0.0" y="117.5" font-size="5.0" font-weight="bold" font-family="Arbeit Regular, Helvetica, Arial-Unicode, Arial, Sans-serif" fill="#000000">Created by Akhmad Zaini</text><text x="0.0" y="122.5" font-size="5.0" font-weight="bold" font-family="Arbeit Regular, Helvetica, Arial-Unicode, Arial, Sans-serif" fill="#000000">from Noun Project</text></svg>