<?xml version="1.0" encoding="UTF-8"?>
<svg version="1.1" xmlns="http://www.w3.org/2000/svg" width="428" height="421">
<path d="M0 0 C1.20840111 -0.00538554 2.41680222 -0.01077108 3.66182154 -0.01631981 C6.98079251 -0.02806504 10.29925509 -0.02656935 13.61820471 -0.019153 C17.21138438 -0.0143924 20.80451198 -0.02695661 24.39767456 -0.03717041 C31.42361007 -0.05430804 38.44945595 -0.05520885 45.47540692 -0.04995751 C51.19058085 -0.0459048 56.90572843 -0.04737239 62.62090111 -0.05270576 C63.43645131 -0.05345419 64.25200152 -0.05420261 65.09226536 -0.05497371 C66.74943299 -0.0565053 68.40660061 -0.05804365 70.06376823 -0.05958868 C85.58143755 -0.07329575 101.09905636 -0.06788888 116.61672451 -0.05640347 C130.78697092 -0.04647513 144.95708668 -0.05940802 159.12731294 -0.08333766 C173.70606881 -0.10777011 188.28476395 -0.11732622 202.86353987 -0.11068493 C211.03687095 -0.10720163 219.21010163 -0.10936565 227.38341713 -0.12693596 C234.34182747 -0.14171002 241.30006674 -0.14222594 248.25847391 -0.12486505 C251.80271406 -0.1163948 255.34664929 -0.11410678 258.89087296 -0.1295166 C286.22990953 -0.23999029 286.22990953 -0.23999029 298.420578 4.38768005 C299.16798154 4.66790795 299.91538507 4.94813585 300.6854372 5.23685551 C308.85295328 8.6196083 315.90798833 13.4779086 322.420578 19.38768005 C323.25202332 20.12631287 324.08346863 20.86494568 324.94010925 21.6259613 C337.69478801 33.59694244 348.35372873 51.28689967 349.60746837 69.03303063 C349.68283505 72.02104262 349.69680055 75.00323081 349.68800354 77.9921875 C349.69253465 79.13198293 349.69706577 80.27177836 349.70173419 81.44611305 C349.7143543 85.25032615 349.71275932 89.05439565 349.71110535 92.85862732 C349.71600789 95.59258561 349.72384199 98.32653395 349.73146057 101.06048584 C349.74803217 107.70814931 349.75356842 114.3557773 349.75468533 121.0034597 C349.75563786 126.41215184 349.75975836 131.82083234 349.76608658 137.2295208 C349.78369038 152.58981072 349.79292708 167.95007276 349.79142563 183.31037284 C349.79134572 184.13743939 349.79126581 184.96450595 349.79118347 185.81663513 C349.79110171 186.64472079 349.79101995 187.47280644 349.79093571 188.3259856 C349.79012359 201.73269514 349.80924483 215.13929213 349.8374602 228.54596914 C349.8662536 242.33701065 349.87999688 256.1279974 349.87827265 269.91906971 C349.87761086 277.65150422 349.88300993 285.38382081 349.90462875 293.1162281 C349.922926 299.70247712 349.92711855 306.28855478 349.91360991 312.87481833 C349.90712213 316.22887357 349.90902306 319.58233547 349.92431641 322.93640137 C350.03035093 347.81506346 346.93744393 368.68522734 330.420578 388.38768005 C329.63553894 389.33643005 328.85049988 390.28518005 328.04167175 391.26268005 C312.16067909 409.61631523 290.46846363 419.58758346 266.420578 421.38768005 C262.75872805 421.5199229 259.10130204 421.53138332 255.43731689 421.52812195 C254.37637123 421.53109307 253.31542557 421.53406419 252.22233003 421.53712535 C248.69082966 421.54575076 245.15936344 421.54731536 241.62785339 421.54881287 C239.08580962 421.55344546 236.54376653 421.55847071 234.00172424 421.56385803 C227.11076431 421.57694277 220.2198155 421.58345706 213.32884526 421.58786869 C209.01660685 421.59064138 204.70437063 421.59488057 200.39213371 421.59937286 C188.4258148 421.61155849 176.45949763 421.6218588 164.49317265 421.62524796 C163.728757 421.62546752 162.96434135 421.62568709 162.17676159 421.62591331 C161.02757155 421.62624072 161.02757155 421.62624072 159.85516554 421.62657475 C158.30299508 421.6270182 156.75082463 421.62746477 155.19865417 421.62791443 C154.04378686 421.62824657 154.04378686 421.62824657 152.8655889 421.62858543 C140.40833701 421.63252803 127.9511438 421.64996877 115.49391455 421.67327395 C102.66899317 421.69707102 89.84410114 421.70945361 77.01915735 421.71061587 C69.83271643 421.71152802 62.64635199 421.71716308 55.45993233 421.73543549 C48.69239559 421.75258359 41.92502771 421.75402716 35.15746689 421.74529648 C32.68693465 421.74453098 30.21639435 421.74880365 27.74588203 421.75875473 C-0.87739181 421.86719691 -29.04693341 418.68946736 -50.88801575 398.12205505 C-65.34510656 383.29769403 -78.66805969 362.86352233 -78.71364307 341.44147682 C-78.71810092 340.4654213 -78.72255876 339.48936578 -78.72715169 338.48373282 C-78.72696733 337.4190633 -78.72678297 336.35439378 -78.72659302 335.25746155 C-78.73026971 334.12037825 -78.73394639 332.98329495 -78.7377345 331.81175458 C-78.74876753 327.99282024 -78.75261459 324.17391311 -78.75642395 320.35496521 C-78.76215805 317.6199775 -78.76932324 314.88499384 -78.77633667 312.15000916 C-78.79607909 303.9354151 -78.80616564 295.72081985 -78.81506446 287.506208 C-78.81945204 283.63294111 -78.82481773 279.75967558 -78.83005333 275.88640976 C-78.84706534 263.00154466 -78.86155709 250.1166804 -78.86880207 237.2318058 C-78.87071182 233.88972091 -78.87263217 230.54763602 -78.87458801 227.20555115 C-78.87507175 226.37494118 -78.87555549 225.5443312 -78.87605389 224.68855123 C-78.88434511 211.24858483 -78.90966676 197.80870768 -78.94216869 184.36878021 C-78.97530287 170.55414611 -78.99325667 156.73955727 -78.99644631 142.92488325 C-78.99860581 135.17508685 -79.00727173 127.42542052 -79.03290749 119.67566299 C-79.05470178 113.07209646 -79.0626224 106.4686916 -79.0529407 99.86509319 C-79.04842062 96.50105646 -79.05236494 93.1376209 -79.06970215 89.77358627 C-79.19429023 64.15458368 -75.25207859 44.8372948 -57.579422 25.38768005 C-57.02899231 24.75603943 -56.47856262 24.1243988 -55.91145325 23.47361755 C-41.50074696 7.88870557 -20.92519642 -0.11365334 0 0 Z " fill="#0D56B0" transform="translate(78.57942199707031,-0.3876800537109375)"/>
<path d="M0 0 C1.04945801 0.45850342 1.04945801 0.45850342 2.12011719 0.92626953 C18.48331766 8.24664869 32.24921327 18.50134747 45 31 C45.68578125 31.64710937 46.3715625 32.29421875 47.078125 32.9609375 C66.3017007 51.40517905 77.9907037 77.14276532 83 103 C83.16918945 103.86133545 83.33837891 104.7226709 83.51269531 105.61010742 C89.54218376 138.47836981 82.32903888 175.01925291 64 203 C63.62149902 203.58894043 63.24299805 204.17788086 62.85302734 204.78466797 C45.11923402 232.04953092 18.21303827 252.70054022 -13 262 C-13.97453125 262.33128906 -14.9490625 262.66257812 -15.953125 263.00390625 C-46.20576934 272.89419382 -80.78598509 268.65025686 -109.21386719 254.93164062 C-121.22928181 248.77408121 -131.92158743 241.1833659 -141.80859375 231.98046875 C-143.94734378 229.97254462 -143.94734378 229.97254462 -146.28515625 228.36328125 C-146.85105469 227.91339844 -147.41695312 227.46351563 -148 227 C-148 226.34 -148 225.68 -148 225 C-148.66 225 -149.32 225 -150 225 C-153.23659008 221.53269576 -156.09436573 217.746107 -159 214 C-159.60457031 213.22140625 -160.20914063 212.4428125 -160.83203125 211.640625 C-170.5650875 198.42008021 -183 177.76036154 -183 161 C-172.77 161 -162.54 161 -152 161 C-151.13375 163.413125 -150.2675 165.82625 -149.375 168.3125 C-139.07158642 196.06066832 -118.93839374 216.03357896 -92.35888672 228.36865234 C-72.08070303 237.3073983 -47.30007496 239.42629999 -26 233 C-24.79601562 232.6596875 -23.59203125 232.319375 -22.3515625 231.96875 C-8.96264262 227.88305898 2.57538879 221.56532066 13.51171875 212.8828125 C15.64091637 211.27170849 17.62726959 210.17562887 20 209 C20.68486725 207.67592331 21.34870203 206.34090759 22 205 C23.14780141 203.85219859 24.29793544 202.70661549 25.4609375 201.57421875 C37.88198439 188.86944236 46.76294142 171.81289091 50.6875 154.5625 C50.89955078 153.68529297 51.11160156 152.80808594 51.33007812 151.90429688 C52.72027592 145.95319778 53.5504045 140.09205267 54 134 C54.07863281 132.98292969 54.15726563 131.96585938 54.23828125 130.91796875 C54.95319733 104.61658235 44.90371918 78.86279475 28 59 C27.35933594 58.21496094 26.71867188 57.42992187 26.05859375 56.62109375 C9.64694272 37.30793535 -15.69284605 23.48423614 -41 21 C-58.64176378 19.91797182 -74.99295073 20.89536403 -91.328125 28.109375 C-94.27627495 29.09209165 -95.15020833 29.02591121 -98 28 C-99.52050781 26.78833008 -99.52050781 26.78833008 -100.953125 25.26953125 C-101.48655518 24.71612061 -102.01998535 24.16270996 -102.56958008 23.5925293 C-103.12411865 23.00511963 -103.67865723 22.41770996 -104.25 21.8125 C-108.88830145 17.02261581 -113.48240823 12.78658259 -119 9 C-115.77901832 5.282857 -112.20606703 3.43650162 -107.75 1.5625 C-107.05052246 1.2631958 -106.35104492 0.9638916 -105.63037109 0.65551758 C-72.03395401 -13.38740938 -33.58096126 -14.70185445 0 0 Z " fill="#FCFCFD" transform="translate(274,82)"/>
<path d="M0 0 C4.97060456 1.87416238 9.71524678 4.20326581 14.5 6.5 C20.06784033 9.17060701 25.63411165 11.8404604 31.2421875 14.42578125 C48.85083284 22.58323182 66.1827274 31.69846109 82 43 C82.8559375 43.60714844 83.711875 44.21429688 84.59375 44.83984375 C87.41477207 46.8684905 90.20819629 48.93133102 93 51 C94.23951189 51.90504577 95.47909987 52.80998734 96.71875 53.71484375 C106.22712919 60.6994011 115.23724412 68.10243955 124 76 C124.56412598 76.5062793 125.12825195 77.01255859 125.70947266 77.53417969 C134.11355203 85.11757673 142.17706298 93.05743478 150.20758057 101.03234863 C151.30155724 102.11827635 152.39700927 103.20272022 153.49407959 104.28552246 C159.74067707 110.45934824 165.59366783 116.73111736 171.07861328 123.60864258 C173.43331663 126.53930576 175.92278368 129.26369626 178.5 132 C186.06823797 140.1470248 193.065362 148.57439846 199 158 C187.44775446 156.381214 175.90576074 154.70327764 164.375 152.9375 C163.31039551 152.77540039 162.24579102 152.61330078 161.14892578 152.44628906 C156.42085689 151.71798475 151.70799215 150.95769276 147.0078125 150.06640625 C138.21692094 148.44036825 129.34785002 147.26912671 120.5 146 C100.12141633 143.07691646 100.12141633 143.07691646 91.57763672 141.45605469 C86.18311685 140.50161605 80.74228399 139.84475952 75.3125 139.125 C49.9044694 135.65008054 25.42926399 131.28252876 1.07080078 123.02636719 C-2.14263611 121.95232611 -5.36984596 120.93480997 -8.60546875 119.9296875 C-10.23258789 119.42115234 -10.23258789 119.42115234 -11.89257812 118.90234375 C-14.13058016 118.20454347 -16.37023189 117.51201668 -18.61132812 116.82421875 C-19.68189453 116.48777344 -20.75246094 116.15132813 -21.85546875 115.8046875 C-23.30409302 115.35585205 -23.30409302 115.35585205 -24.78198242 114.89794922 C-27 114 -27 114 -28 112 C-12.65373906 107.56327682 6.83081994 111.10385677 22.625 112.4375 C23.43428955 112.5048938 24.2435791 112.5722876 25.07739258 112.64172363 C27.37779651 112.83621127 29.67727092 113.03890305 31.9765625 113.24609375 C32.67323029 113.30657394 33.36989807 113.36705414 34.087677 113.42936707 C38.88256752 113.88256752 38.88256752 113.88256752 40 115 C42.49795426 115.47594517 44.99057096 115.90607802 47.5 116.3125 C53.79743999 117.37800315 60.0314089 118.60424859 66.25 120.0625 C66.95189453 120.22468018 67.65378906 120.38686035 68.37695312 120.55395508 C72.05918586 121.43388727 75.52848278 122.48625703 79 124 C79 123.34 79 122.68 79 122 C78.44530029 121.82331787 77.89060059 121.64663574 77.3190918 121.46459961 C72.02320111 119.74375734 66.91869629 117.77691013 61.8125 115.5625 C53.42449237 111.97870331 44.97375195 108.56218182 36.5 105.1875 C33.91520751 104.15664357 31.33063337 103.12524024 28.74609375 102.09375 C28.10261993 101.83695465 27.45914612 101.5801593 26.7961731 101.31558228 C-4.77173673 88.71308348 -4.77173673 88.71308348 -14.1875 84.1875 C-19.62786274 81.57265595 -25.1090627 79.40288369 -30.77612305 77.35180664 C-39.03202594 74.32548486 -47.00361624 70.64649908 -55 67 C-55 66.67 -55 66.34 -55 66 C-48.58536104 65.87106253 -42.52672554 66.2957468 -36.1875 67.25 C-35.27806641 67.38422363 -34.36863281 67.51844727 -33.43164062 67.65673828 C-24.72006064 68.97973047 -16.08607272 70.60664725 -7.47412109 72.46728516 C-5.85625786 72.81563503 -4.23681828 73.1567625 -2.61572266 73.48974609 C13.70001586 76.8574432 29.30851723 82.25141115 45.0378418 87.64770508 C49.02121806 89.01183626 53.01544446 90.34218951 57.01171875 91.66796875 C69.33933853 95.77016305 81.03996428 100.27413363 92.57421875 106.265625 C95.35382764 107.67286143 98.08635416 108.90807919 101 110 C101 109.34 101 108.68 101 108 C100.12859375 107.7421875 99.2571875 107.484375 98.359375 107.21875 C94.94538337 105.98018559 92.29606275 104.46624156 89.25 102.5 C68.02378458 89.12631089 45.24922063 78.88719305 22.46484375 68.49609375 C15.62223211 65.37492308 8.80765867 62.19663973 2 59 C0.53127186 58.31245331 -0.93747928 57.62495573 -2.40625 56.9375 C-3.91672783 56.22929711 -5.42714559 55.52096606 -6.9375 54.8125 C-7.62384521 54.49128174 -8.31019043 54.17006348 -9.01733398 53.83911133 C-13.71572 51.63116095 -18.36397326 49.33614308 -23 47 C-23 46.67 -23 46.34 -23 46 C21.30114476 44.98855834 56.33685219 59.20187554 94.55078125 81.0390625 C97.01179603 82.43818981 99.44847784 83.77999197 102 85 C90.27223577 75.28692152 78.22562193 66.07530805 66 57 C34.09072939 33.25222233 34.09072939 33.25222233 23.3125 23.1640625 C21.20992875 21.19645359 19.06278915 19.30908525 16.875 17.4375 C13.08103844 14.15096128 9.57555365 10.61369908 6.078125 7.015625 C4.05614943 4.95840608 4.05614943 4.95840608 1.734375 3.359375 C1.16203125 2.91078125 0.5896875 2.4621875 0 2 C0 1.34 0 0.68 0 0 Z " fill="#FBFBFC" transform="translate(86,87)"/>
<path d="M0 0 C1.65 1.65 3.3 3.3 5 5 C4.67 5.99 4.34 6.98 4 8 C5.32 8 6.64 8 8 8 C9.32 10.31 10.64 12.62 12 15 C12.66 15 13.32 15 14 15 C14.3403125 16.2065625 14.3403125 16.2065625 14.6875 17.4375 C15.120625 18.283125 15.55375 19.12875 16 20 C16.804375 20.12375 17.60875 20.2475 18.4375 20.375 C19.7059375 20.684375 19.7059375 20.684375 21 21 C21.474375 22.155 21.94875 23.31 22.4375 24.5 C22.953125 25.655 23.46875 26.81 24 28 C27.08369887 29.05749557 27.08369887 29.05749557 30 29 C30 29.928125 30 30.85625 30 31.8125 C30.62420721 35.06092614 30.62420721 35.06092614 32.84765625 36.06640625 C34.88326804 36.80956611 36.90300196 37.45544926 39 38 C39 38.99 39 39.98 39 41 C40.32 41 41.64 41 43 41 C43 41.66 43 42.32 43 43 C43.99 43 44.98 43 46 43 C46.495 42.01 46.495 42.01 47 41 C47 41.99 47 42.98 47 44 C48.65 44.33 50.3 44.66 52 45 C52 45.66 52 46.32 52 47 C52.66 46.67 53.32 46.34 54 46 C54 45.34 54 44.68 54 44 C54.66 44 55.32 44 56 44 C56.66 44.99 57.32 45.98 58 47 C58.495 46.01 58.495 46.01 59 45 C61.97 45.33 64.94 45.66 68 46 C67.67 47.32 67.34 48.64 67 50 C81.76459957 51.05214864 96.48077256 51.13621041 111.27783203 51.11352539 C113.8814392 51.11324277 116.48504644 51.11340272 119.08865356 51.1139679 C124.65739554 51.11448812 130.22612566 51.11139425 135.79486465 51.10573006 C143.84597707 51.09754634 151.89708385 51.09499286 159.94819997 51.09374207 C173.01576286 51.09156225 186.08331944 51.08493141 199.15087891 51.07543945 C211.83251921 51.06623749 224.5141578 51.05917033 237.19580078 51.05493164 C238.3715575 51.05453756 238.3715575 51.05453756 239.57106687 51.05413551 C243.50399025 51.05283032 247.43691364 51.05156665 251.36983705 51.05032361 C283.91322928 51.03998437 316.45661379 51.02239545 349 51 C348.67 51.99 348.34 52.98 348 54 C340.98309215 54.83286802 334.07950614 55.14672858 327.01673889 55.14044189 C325.95579323 55.14341302 324.89484756 55.14638414 323.80175203 55.1494453 C320.27025166 55.15807071 316.73878543 55.15963531 313.20727539 55.16113281 C310.66523161 55.1657654 308.12318853 55.17079065 305.58114624 55.17617798 C298.6901863 55.18926272 291.79923749 55.19577701 284.90826726 55.20018864 C280.59602884 55.20296132 276.28379263 55.20720052 271.97155571 55.21169281 C260.00523679 55.22387844 248.03891963 55.23417874 236.07259464 55.2375679 C235.308179 55.23778747 234.54376335 55.23800703 233.75618359 55.23823325 C232.60699354 55.23856067 232.60699354 55.23856067 231.43458754 55.2388947 C229.88241708 55.23933815 228.33024663 55.23978471 226.77807617 55.24023438 C225.62320886 55.24056652 225.62320886 55.24056652 224.44501089 55.24090537 C211.987759 55.24484797 199.5305658 55.26228872 187.07333655 55.2855939 C174.24841517 55.30939097 161.42352313 55.32177356 148.59857935 55.32293582 C141.41213843 55.32384797 134.22577399 55.32948303 127.03935432 55.34775543 C120.27181759 55.36490354 113.50444971 55.3663471 106.73688889 55.35761642 C104.26635665 55.35685093 101.79581635 55.3611236 99.32530403 55.37107468 C70.70203019 55.47951685 42.53248858 52.30178731 20.69140625 31.734375 C0 10.51732102 0 10.51732102 0 0 Z " fill="#748FBA" transform="translate(7,366)"/>
<path d="M0 0 C0.33 0 0.66 0 1 0 C0.68562948 4.68303676 0.18726478 8.92983445 -1.5625 13.3125 C-3.2421388 16.96150783 -3.2421388 16.96150783 -3 21 C-3.48919922 22.18722656 -3.48919922 22.18722656 -3.98828125 23.3984375 C-5.12632032 26.32482368 -5.2348756 28.49821072 -5.1875 31.625 C-5.18105469 32.56601563 -5.17460938 33.50703125 -5.16796875 34.4765625 C-5.09828658 37.12600912 -5.09828658 37.12600912 -4 40 C-4.66 40.66 -5.32 41.32 -6 42 C-6.6425235 44.06874034 -6.6425235 44.06874034 -7 46 C-6.34 46.33 -5.68 46.66 -5 47 C-5.16238096 47.95515881 -5.32476192 48.91031761 -5.49206352 49.89442062 C-6.144543 54.49570891 -6.13865992 59.04916474 -6.12698364 63.68927002 C-6.12854363 64.64712457 -6.13010362 65.60497913 -6.13171089 66.59185958 C-6.13569008 69.79204978 -6.13254313 72.99219229 -6.12939453 76.19238281 C-6.13074997 78.4908094 -6.13253071 80.78923578 -6.13470459 83.08766174 C-6.13926293 89.3253956 -6.13749564 95.56311291 -6.1343255 101.80084705 C-6.13179245 108.33400835 -6.1341422 114.86716824 -6.13571167 121.40032959 C-6.13784755 133.07875618 -6.13454004 144.75717582 -6.12945233 156.4356012 C-6.12498897 167.00768969 -6.12575732 177.57976719 -6.13037109 188.15185547 C-6.13573286 200.44356379 -6.13770885 212.73526511 -6.13475883 225.02697444 C-6.13320245 231.52794709 -6.13298467 238.02891218 -6.13629532 244.52988434 C-6.13919253 250.6464405 -6.13716437 256.76297601 -6.13140106 262.87952995 C-6.13008315 265.11959486 -6.13045107 267.35966152 -6.13266373 269.59972572 C-6.13541357 272.66743878 -6.13194747 275.73508647 -6.12698364 278.80279541 C-6.12921436 279.68035217 -6.13144509 280.55790892 -6.13374341 281.46205831 C-6.18718692 291.93331607 -6.18718692 291.93331607 -4.37549603 302.17891717 C-4 304 -4 304 -5.4375 306.25 C-6.2109375 307.11625 -6.2109375 307.11625 -7 308 C-8.77915793 304.9286207 -9.25134668 302.71174351 -9.25726891 299.1768446 C-9.2637178 298.20278012 -9.27016669 297.22871565 -9.276811 296.22513407 C-9.2737138 295.15755171 -9.2706166 294.08996935 -9.26742554 292.99003601 C-9.27195665 291.85380714 -9.27648776 290.71757826 -9.28115618 289.54691821 C-9.29385517 285.72484143 -9.29217621 281.90290614 -9.29052734 278.08081055 C-9.29542101 275.34596721 -9.30325748 272.6111339 -9.31088257 269.876297 C-9.32750447 263.20756248 -9.33299279 256.53886332 -9.33410732 249.87010982 C-9.33505794 244.44460375 -9.33916893 239.01910933 -9.34550858 233.59360695 C-9.36312996 218.19871062 -9.3723469 202.80384218 -9.37084763 187.40893569 C-9.37076772 186.57877939 -9.3706878 185.7486231 -9.37060547 184.89331055 C-9.37052371 184.06213507 -9.37044195 183.2309596 -9.37035771 182.37459699 C-9.3695462 168.92809492 -9.38864739 155.48170526 -9.4168822 142.03523567 C-9.44566929 128.21610697 -9.45941907 114.39703295 -9.45769465 100.57787353 C-9.4570324 92.82471686 -9.46245112 85.07167777 -9.48405075 77.3185482 C-9.5023401 70.71128881 -9.50654732 64.10420018 -9.4930319 57.49692633 C-9.48653878 54.13087878 -9.48845941 50.76542287 -9.5037384 47.39936447 C-9.64298078 14.58303241 -9.64298078 14.58303241 0 0 Z " fill="#355596" transform="translate(9,42)"/>
<path d="M0 0 C2.82161385 2.82161385 2.92107204 5.4847806 3.1241985 9.38430053 C3.12381878 10.21778665 3.12343906 11.05127278 3.12304783 11.91001606 C3.12503888 12.87790509 3.12702993 13.84579411 3.12908131 14.84301311 C3.12616847 15.89845968 3.12325563 16.95390626 3.12025452 18.04133606 C3.12110894 19.16858508 3.12196337 20.29583411 3.12284368 21.45724219 C3.12449346 25.24210005 3.11898527 29.02691379 3.11352539 32.81176758 C3.11268678 35.52183053 3.11335746 38.23189261 3.1139679 40.94195557 C3.11449215 46.78048473 3.11135559 52.61900272 3.10573006 58.45752907 C3.09760179 66.89904943 3.09499847 75.34056439 3.09374207 83.78208824 C3.09155364 97.47801957 3.0848992 111.17394495 3.07543945 124.86987305 C3.06625994 138.1739092 3.05918174 151.47794374 3.05493164 164.78198242 C3.05466892 165.60209259 3.05440619 166.42220275 3.05413551 167.26716474 C3.05283047 171.38143116 3.05156676 175.49569758 3.05032361 179.60996401 C3.0399575 213.7399803 3.02234485 247.86998951 3 282 C2.67 282 2.34 282 2 282 C2 268.47 2 254.94 2 241 C1.34 240.67 0.68 240.34 0 240 C0 231.75 0 223.5 0 215 C-0.66 215 -1.32 215 -2 215 C-2 214.34 -2 213.68 -2 213 C-1.34 213 -0.68 213 0 213 C-0.08378906 212.24074219 -0.16757812 211.48148438 -0.25390625 210.69921875 C-0.35574219 209.70535156 -0.45757812 208.71148437 -0.5625 207.6875 C-0.66691406 206.70136719 -0.77132813 205.71523438 -0.87890625 204.69921875 C-1 202 -1 202 0 199 C0.22745382 195.69140709 0.18515349 192.37811642 0.1875 189.0625 C0.19974609 188.15564453 0.21199219 187.24878906 0.22460938 186.31445312 C0.22654297 185.43853516 0.22847656 184.56261719 0.23046875 183.66015625 C0.23457764 182.86230713 0.23868652 182.06445801 0.24291992 181.24243164 C-0.02501534 178.7690795 -0.76485015 177.14139554 -2 175 C-1.34 175 -0.68 175 0 175 C0.02529174 167.77344508 0.04284219 160.5469015 0.05493164 153.3203125 C0.05996989 150.86034722 0.0668006 148.40038495 0.07543945 145.94042969 C0.08752723 142.41079975 0.09323329 138.88120931 0.09765625 135.3515625 C0.10281754 134.24632233 0.10797882 133.14108215 0.11329651 132.00234985 C0.11340981 130.47098892 0.11340981 130.47098892 0.11352539 128.90869141 C0.115746 128.00712311 0.11796661 127.10555481 0.12025452 126.17666626 C0.1419285 123.95286252 0.1419285 123.95286252 -1 122 C-0.34 122 0.32 122 1 122 C0.66226562 121.16210938 0.32453125 120.32421875 -0.0234375 119.4609375 C-1.12914217 115.54232013 -1.0000436 112.66713656 -0.625 108.625 C-0.51800781 107.31144531 -0.41101563 105.99789062 -0.30078125 104.64453125 C-0.15189453 102.84048828 -0.15189453 102.84048828 0 101 C0.39356789 94.70899612 0.39356789 94.70899612 -2 89 C-1.01 88.505 -1.01 88.505 0 88 C0.18397888 82.85482007 0.18397888 82.85482007 -0.5625 77.8125 C-1 76 -1 76 -0.53564453 73.77124023 C0.05184311 70.73178162 0.12955726 67.94315487 0.1328125 64.84765625 C0.13466553 63.61345947 0.13651855 62.3792627 0.13842773 61.10766602 C0.13428049 59.75927629 0.12979553 58.41088757 0.125 57.0625 C0.12416916 56.03610916 0.12416916 56.03610916 0.12332153 54.98898315 C0.11020107 40.97895017 -0.26229894 26.98023183 -0.73193359 12.97875977 C-0.75673294 12.18590576 -0.78153229 11.39305176 -0.80708313 10.57617188 C-0.85397216 9.08050439 -0.90504291 7.58496048 -0.96086121 6.08959961 C-1.01258409 4.39380485 -1.01191448 2.69654153 -1 1 C-0.67 0.67 -0.34 0.34 0 0 Z " fill="#2271B4" transform="translate(425,59)"/>
<path d="M0 0 C1.5561544 -0.00406136 3.11230865 -0.00817861 4.66846275 -0.01235008 C11.97213209 -0.03128372 19.27579194 -0.04555149 26.57948095 -0.05396205 C34.94225377 -0.06376043 43.30476381 -0.09019736 51.66744405 -0.13046294 C58.18607657 -0.16075135 64.70463401 -0.17544195 71.22333544 -0.17874306 C75.09411289 -0.18107413 78.96460567 -0.18978146 82.83530617 -0.21520424 C86.47261272 -0.23872342 90.10945142 -0.24262437 93.74681473 -0.23244286 C95.68920706 -0.23172328 97.63157703 -0.25063184 99.5738678 -0.27050781 C111.52704218 -0.20104775 122.83736688 2.26365161 133.29296875 8.23828125 C133.29296875 8.89828125 133.29296875 9.55828125 133.29296875 10.23828125 C127.68296875 10.23828125 122.07296875 10.23828125 116.29296875 10.23828125 C115.30296875 7.76328125 115.30296875 7.76328125 114.29296875 5.23828125 C104.73881123 0.46120249 87.91432028 3.15469256 77.41796875 3.23828125 C74.00390905 3.2651334 70.58990793 3.28496401 67.17578125 3.30078125 C66.03642624 3.31322876 66.03642624 3.31322876 64.87405396 3.32592773 C61.09984066 3.3429659 57.44506558 3.18264178 53.69677734 2.72460938 C49.73815192 2.24231637 45.94052261 2.21575185 41.94921875 2.39453125 C41.29522095 2.42051392 40.64122314 2.44649658 39.96740723 2.4732666 C37.90893289 2.55520265 35.85098518 2.64559529 33.79296875 2.73828125 C31.07447662 2.86071275 28.35581741 2.97400423 25.63671875 3.08203125 C24.44240234 3.13552734 23.24808594 3.18902344 22.01757812 3.24414062 C19.2924712 3.23985362 16.90959966 3.10211513 14.23657227 2.75415039 C7.79126481 1.96839528 1.33498253 2.11507548 -5.1484375 2.140625 C-6.52562915 2.14249397 -7.90282148 2.14391561 -9.28001404 2.14491272 C-12.87531423 2.14870022 -16.47057294 2.15849757 -20.06585693 2.1696167 C-23.74637288 2.17991256 -27.42689563 2.18442772 -31.10742188 2.18945312 C-38.30731042 2.20012386 -45.50716498 2.21715407 -52.70703125 2.23828125 C-52.70703125 1.90828125 -52.70703125 1.57828125 -52.70703125 1.23828125 C-35.14649121 0.09282454 -17.58942306 0.03951647 0 0 Z " fill="#1372BD" transform="translate(251.70703125,-0.23828125)"/>
<path d="M0 0 C1.65 1.65 3.3 3.3 5 5 C4.67 5.99 4.34 6.98 4 8 C5.32 8 6.64 8 8 8 C9.32 10.31 10.64 12.62 12 15 C12.66 15 13.32 15 14 15 C14.3403125 16.2065625 14.3403125 16.2065625 14.6875 17.4375 C15.120625 18.283125 15.55375 19.12875 16 20 C16.804375 20.12375 17.60875 20.2475 18.4375 20.375 C19.7059375 20.684375 19.7059375 20.684375 21 21 C21.474375 22.155 21.94875 23.31 22.4375 24.5 C22.953125 25.655 23.46875 26.81 24 28 C27.08369887 29.05749557 27.08369887 29.05749557 30 29 C30 29.928125 30 30.85625 30 31.8125 C30.62420721 35.06092614 30.62420721 35.06092614 32.84765625 36.06640625 C34.88326804 36.80956611 36.90300196 37.45544926 39 38 C39 38.99 39 39.98 39 41 C40.32 41 41.64 41 43 41 C43 41.66 43 42.32 43 43 C43.99 43 44.98 43 46 43 C46.495 42.01 46.495 42.01 47 41 C47 41.99 47 42.98 47 44 C48.65 44.33 50.3 44.66 52 45 C52 45.66 52 46.32 52 47 C52.66 46.67 53.32 46.34 54 46 C54 45.34 54 44.68 54 44 C54.66 44 55.32 44 56 44 C56.66 44.99 57.32 45.98 58 47 C58.495 46.01 58.495 46.01 59 45 C61.97 45.33 64.94 45.66 68 46 C67.67 47.32 67.34 48.64 67 50 C67 50.99 67 51.98 67 53 C48.56119119 52.34147111 29.7210036 41.1667346 17.21484375 28.140625 C0 9.22321429 0 9.22321429 0 0 Z " fill="#455189" transform="translate(7,366)"/>
<path d="M0 0 C0.33 0 0.66 0 1 0 C2.14392262 13.31397936 2.11882304 26.59503329 2.07516479 39.94936562 C2.06225157 43.94005465 2.05570305 47.93072785 2.05102539 51.9214325 C2.04002281 60.385137 2.02046594 68.84881389 2 77.3125 C1.97788226 86.47290702 1.95734425 95.63330291 1.94658184 104.79373139 C1.94085295 109.38361796 1.92730687 113.97344438 1.91235352 118.56330872 C1.90871914 120.97750811 1.90536764 123.39170796 1.90234375 125.8059082 C1.89717743 126.88201355 1.89201111 127.9581189 1.88668823 129.0668335 C1.74457477 140.23301058 1.74457477 140.23301058 3.62461853 151.17111683 C4 153 4 153 2.5625 155.25 C2.046875 155.8275 1.53125 156.405 1 157 C-1.14499821 153.5089947 -1.23579615 150.7671304 -1.20254517 146.71051025 C-1.19688034 145.41764603 -1.19121552 144.1247818 -1.18537903 142.79273987 C-1.16885837 141.36214992 -1.15214348 139.9315622 -1.13525391 138.50097656 C-1.12482642 136.99302233 -1.11529144 135.4850617 -1.10658264 133.97709656 C-1.08041452 129.88438008 -1.04174785 125.79186544 -1.00085878 121.69927311 C-0.96024157 117.42186302 -0.93108859 113.14437529 -0.90072632 108.86688232 C-0.8414888 100.76730416 -0.77192171 92.66784888 -0.69865549 84.56838679 C-0.61574485 75.34724773 -0.54433119 66.12603088 -0.47388959 56.90478945 C-0.32873111 37.93641121 -0.16911399 18.96817902 0 0 Z " fill="#153386" transform="translate(1,193)"/>
<path d="M0 0 C1.50913984 0.00084824 3.01828092 0.00036729 4.52742004 -0.00132751 C8.58660846 -0.00218121 12.64552588 0.01534189 16.70465183 0.03639436 C20.96070002 0.05526669 25.21675578 0.05691986 29.47283936 0.06047058 C37.51546521 0.06976025 45.55796736 0.09433193 53.60053897 0.12451905 C62.76386603 0.15815941 71.9271993 0.1745732 81.09057283 0.18960536 C99.92470958 0.22088456 118.75873153 0.27358456 137.59277344 0.34057617 C137.59277344 0.67057617 137.59277344 1.00057617 137.59277344 1.34057617 C136.55938701 1.34692408 136.55938701 1.34692408 135.50512409 1.35340023 C118.69329172 1.45698847 101.88150059 1.56566652 85.06973743 1.67991543 C76.93949045 1.73504572 68.80923908 1.78849298 60.67895508 1.83789062 C53.58741336 1.88098149 46.49590131 1.92731935 39.40440577 1.97745472 C35.65425029 2.00385683 31.90409993 2.02870195 28.15390968 2.04965019 C24.61382765 2.06947631 21.07380104 2.0936904 17.53376961 2.12106705 C15.63619009 2.13465793 13.73858014 2.14377883 11.8409729 2.1526947 C-2.27015895 2.27154845 -15.24086841 3.07403291 -28.40722656 8.34057617 C-28.07722656 6.69057617 -27.74722656 5.04057617 -27.40722656 3.34057617 C-18.19135188 0.49055003 -9.59364537 -0.07645157 0 0 Z " fill="#1B61A1" transform="translate(81.4072265625,-0.340576171875)"/>
<path d="M0 0 C13.45021282 -0.02340534 26.90042062 -0.04105617 40.35064983 -0.05181217 C46.59941527 -0.0569804 52.84816654 -0.06396455 59.09692383 -0.07543945 C112.97222233 -0.17187854 112.97222233 -0.17187854 136 1 C136 1.33 136 1.66 136 2 C91.12 2.33 46.24 2.66 0 3 C0 2.01 0 1.02 0 0 Z " fill="#153386" transform="translate(75,417)"/>
<path d="M0 0 C3.10156893 3.10156893 2.96904324 6.12201983 3.12025452 10.41059875 C3.1169236 12.36584724 3.1169236 12.36584724 3.11352539 14.3605957 C3.11367142 15.08309006 3.11381744 15.80558441 3.1139679 16.54997253 C3.11327422 18.92527322 3.10550745 21.30049435 3.09765625 23.67578125 C3.09579013 25.32773292 3.09436714 26.97968515 3.09336853 28.63163757 C3.08955861 32.97007792 3.07974139 37.30848455 3.06866455 41.64691162 C3.0584176 46.07775415 3.05386388 50.50860215 3.04882812 54.93945312 C3.03811771 63.62631752 3.02105966 72.31315456 3 81 C2.67 81 2.34 81 2 81 C1.67 74.73 1.34 68.46 1 62 C0.67 62 0.34 62 0 62 C0.01160156 60.78054687 0.02320313 59.56109375 0.03515625 58.3046875 C0.09387998 48.54536274 0.01952354 38.80212026 -0.2578125 29.046875 C-0.294226 27.76026474 -0.294226 27.76026474 -0.33137512 26.44766235 C-0.4563328 22.11046584 -0.59001141 17.77367691 -0.73217773 13.43701172 C-0.78116365 11.82519763 -0.83007648 10.21338132 -0.87890625 8.6015625 C-0.90594635 7.84840759 -0.93298645 7.09525269 -0.96084595 6.3192749 C-1.01266316 4.54689253 -1.01190269 2.77309972 -1 1 C-0.67 0.67 -0.34 0.34 0 0 Z " fill="#287ABA" transform="translate(425,59)"/>
<path d="M0 0 C12.39864258 5.58349467 19.79945534 20.8883873 25.3203125 32.59765625 C26.12133534 35.42885765 25.78945151 37.19694747 25 40 C23.5 38.875 23.5 38.875 22 37 C21.8125 33.8125 21.8125 33.8125 22 31 C20.35 30.67 18.7 30.34 17 30 C16.67 27.03 16.34 24.06 16 21 C15.01 20.67 14.02 20.34 13 20 C12 17.5 12 17.5 11 15 C10.01 14.67 9.02 14.34 8 14 C7.690625 13.21625 7.38125 12.4325 7.0625 11.625 C5.83828013 8.60045678 4.75392431 7.66904504 2 6 C1.01 5.67 0.02 5.34 -1 5 C-0.67 3.35 -0.34 1.7 0 0 Z " fill="#0F7ACE" transform="translate(399,19)"/>
<path d="M0 0 C11.49748838 -0.9739049 23.04869309 2.31353891 33 8 C33 8.66 33 9.32 33 10 C27.39 10 21.78 10 16 10 C15.34 8.35 14.68 6.7 14 5 C10.99688715 3.23346303 8.15429387 2.8660531 4.75 2.5 C2.89375 2.2525 2.89375 2.2525 1 2 C0.67 1.34 0.34 0.68 0 0 Z " fill="#0E77C7" transform="translate(352,0)"/>
<path d="M0 0 C1.65 1.65 3.3 3.3 5 5 C4.67 5.99 4.34 6.98 4 8 C5.32 8 6.64 8 8 8 C9.32 10.31 10.64 12.62 12 15 C12.66 15 13.32 15 14 15 C15.25664978 17.90600261 16 19.79604584 16 23 C16.99 23 17.98 23 19 23 C21.07639763 25.87501211 22.3543999 28.51375944 23 32 C12.75119425 27.53428944 4.38491193 12.88120706 0 3 C0 2.01 0 1.02 0 0 Z " fill="#2E3B80" transform="translate(7,366)"/>
<path d="M0 0 C0.33 0 0.66 0 1 0 C1 21.12 1 42.24 1 64 C0.34 63.67 -0.32 63.34 -1 63 C-1 54.75 -1 46.5 -1 38 C-1.66 38 -2.32 38 -3 38 C-3 37.34 -3 36.68 -3 36 C-2.34 36 -1.68 36 -1 36 C-1.08378906 35.24074219 -1.16757812 34.48148437 -1.25390625 33.69921875 C-1.40666016 32.20841797 -1.40666016 32.20841797 -1.5625 30.6875 C-1.66691406 29.70136719 -1.77132813 28.71523438 -1.87890625 27.69921875 C-2 25 -2 25 -1 22 C-0.95476641 19.95883447 -0.96139382 17.91630163 -1 15.875 C-1.04834154 10.47887505 -0.72452121 5.34334393 0 0 Z " fill="#1267B4" transform="translate(426,236)"/>
<path d="M0 0 C0.66 0.66 1.32 1.32 2 2 C0.74896484 2.07347656 0.74896484 2.07347656 -0.52734375 2.1484375 C-10.39372112 2.80393565 -18.8308792 4.33235168 -28 8 C-27.67 6.35 -27.34 4.7 -27 3 C-17.99698884 0.1834155 -9.39974844 -0.92555068 0 0 Z " fill="#3D74A7" transform="translate(81,0)"/>
<path d="M0 0 C0.33 0 0.66 0 1 0 C1.57652483 6.38295352 2.06732231 12.71255001 2 19.125 C1.90782846 28.74987027 1.90782846 28.74987027 3.625 38.171875 C4 40 4 40 2.5625 42.25 C2.046875 42.8275 1.53125 43.405 1 44 C-0.63071503 41.13486817 -1.23934172 39.16319825 -1.13525391 35.87402344 C-1.11508209 35.07349548 -1.09491028 34.27296753 -1.0741272 33.44818115 C-1.04193085 32.59387512 -1.0097345 31.73956909 -0.9765625 30.859375 C-0.95153656 29.97719299 -0.92651062 29.09501099 -0.90072632 28.18609619 C-0.81867812 25.37366442 -0.72203008 22.56195086 -0.625 19.75 C-0.56674491 17.84117499 -0.50944196 15.93232067 -0.453125 14.0234375 C-0.31312189 9.34854666 -0.16002495 4.67424658 0 0 Z " fill="#152981" transform="translate(1,306)"/>
<path d="M0 0 C0.33 0 0.66 0 1 0 C0.63742276 5.40115062 -0.18017562 10.0556493 -2.234375 15.0703125 C-3.39195868 17.98789586 -4.17997267 20.97220678 -5 24 C-5.99 24 -6.98 24 -8 24 C-7.56106673 15.22133469 -4.89556787 7.34335181 0 0 Z " fill="#3C6496" transform="translate(9,42)"/>
<path d="M0 0 C4.3069975 3.86274426 6.74637768 7.752113 9.25 12.9375 C9.600625 13.62779297 9.95125 14.31808594 10.3125 15.02929688 C12.27804034 19.01707583 13.52356815 22.5229419 14 27 C13.01 27 12.02 27 11 27 C9.64560332 24.29120665 9.93498549 21.99066732 10 19 C9.34 19 8.68 19 8 19 C7.32942113 17.2097939 6.6636531 15.41778511 6 13.625 C5.62875 12.62726562 5.2575 11.62953125 4.875 10.6015625 C4 8 4 8 4 6 C3.01 5.67 2.02 5.34 1 5 C0.67 3.35 0.34 1.7 0 0 Z " fill="#3984BF" transform="translate(411,31)"/>
<path d="M0 0 C0 4.25491168 -2.47159742 6.07313316 -5.25 9 C-5.98669922 9.80050781 -5.98669922 9.80050781 -6.73828125 10.6171875 C-9.31357494 13.37790233 -11.88308798 15.8626889 -15 18 C-15.66 17.67 -16.32 17.34 -17 17 C-17 16.34 -17 15.68 -17 15 C-16.01 15 -15.02 15 -14 15 C-13.67 13.68 -13.34 12.36 -13 11 C-12.34 11 -11.68 11 -11 11 C-11 10.34 -11 9.68 -11 9 C-10.34 9 -9.68 9 -9 9 C-9.33 7.68 -9.66 6.36 -10 5 C-9.16855469 4.70996094 -9.16855469 4.70996094 -8.3203125 4.4140625 C-7.59585937 4.15367187 -6.87140625 3.89328125 -6.125 3.625 C-5.40570313 3.36976563 -4.68640625 3.11453125 -3.9453125 2.8515625 C-1.81842006 2.06122217 -1.81842006 2.06122217 0 0 Z " fill="#4486BB" transform="translate(410,384)"/>
<path d="M0 0 C0.33 0 0.66 0 1 0 C1.258085 3.64437715 1.47609116 7.29014117 1.6875 10.9375 C1.76033203 11.95908203 1.83316406 12.98066406 1.90820312 14.03320312 C2.26924181 20.68056251 1.64800423 25.86976848 -1 32 C-1.99 31.67 -2.98 31.34 -4 31 C-4 30.34 -4 29.68 -4 29 C-3.34 29 -2.68 29 -2 29 C-2.01160156 28.21753906 -2.02320313 27.43507813 -2.03515625 26.62890625 C-2.04417969 25.61699219 -2.05320312 24.60507812 -2.0625 23.5625 C-2.07410156 22.55316406 -2.08570313 21.54382813 -2.09765625 20.50390625 C-2 18 -2 18 -1 17 C-0.95261838 15.64666252 -0.96284989 14.29115698 -1 12.9375 C-1.05657026 8.52501979 -0.63476632 4.36401848 0 0 Z " fill="#3B72AD" transform="translate(425,329)"/>
<path d="M0 0 C0.33 0 0.66 0 1 0 C1.33 15.18 1.66 30.36 2 46 C-0.33972554 42.4904117 -0.34391369 40.59994145 -0.5625 36.4375 C-0.66806962 32.05979334 -0.66806962 32.05979334 -2 28 C-2.12764448 25.57475484 -2.12384301 23.47703409 -1.51196289 21.12011719 C-0.96627892 18.86035582 -0.79335934 16.77388314 -0.68359375 14.453125 C-0.64169922 13.60878906 -0.59980469 12.76445312 -0.55664062 11.89453125 C-0.51732422 11.02183594 -0.47800781 10.14914062 -0.4375 9.25 C-0.39431641 8.36183594 -0.35113281 7.47367187 -0.30664062 6.55859375 C-0.20086385 4.37254037 -0.09877454 2.18637911 0 0 Z " fill="#145B9F" transform="translate(426,300)"/>
<path d="M0 0 C1.65 0 3.3 0 5 0 C5.37125 1.134375 5.7425 2.26875 6.125 3.4375 C6.86637873 5.3814131 6.86637873 5.3814131 8 7 C11.08369887 8.05749557 11.08369887 8.05749557 14 8 C15 11 15 11 14 14 C10.07682012 13.18830761 7.70522845 12.03071851 5.375 8.625 C4.18440753 6.35205074 3.46362424 4.50357091 3 2 C2.01 2 1.02 2 0 2 C0 1.34 0 0.68 0 0 Z " fill="#162685" transform="translate(23,387)"/>
<path d="M0 0 C0.99 1.485 0.99 1.485 2 3 C2.66 3 3.32 3 4 3 C4.13277344 3.73605469 4.26554688 4.47210938 4.40234375 5.23046875 C4.57894531 6.20628906 4.75554688 7.18210937 4.9375 8.1875 C5.19853516 9.63189453 5.19853516 9.63189453 5.46484375 11.10546875 C5.81419917 12.99504805 6.2209727 14.87515178 6.69140625 16.73828125 C6.84416016 17.85783203 6.84416016 17.85783203 7 19 C6.34 19.66 5.68 20.32 5 21 C4.35089846 19.41800369 3.70585306 17.83434276 3.0625 16.25 C2.70285156 15.36828125 2.34320313 14.4865625 1.97265625 13.578125 C0.1969888 8.87153658 -0.09730289 5.05975034 0 0 Z " fill="#4C5793" transform="translate(1,344)"/>
<path d="M0 0 C2 2 2 2 2.13525391 5.62353516 C2.09288757 7.17903344 2.03921439 8.73424915 1.9765625 10.2890625 C1.95153656 11.10748627 1.92651062 11.92591003 1.90072632 12.76913452 C1.8184256 15.38817148 1.72187618 18.00646554 1.625 20.625 C1.56677066 22.39840696 1.50946717 24.17184458 1.453125 25.9453125 C1.31283201 30.29730379 1.15975672 34.64868148 1 39 C0.67 39 0.34 39 0 39 C-0.16722525 33.60670134 -0.32782368 28.21326249 -0.48217773 22.81958008 C-0.53567534 20.9832625 -0.59101046 19.14699753 -0.64819336 17.31079102 C-0.72988864 14.67736153 -0.80505738 12.04381595 -0.87890625 9.41015625 C-0.90594131 8.58411392 -0.93297638 7.75807159 -0.96083069 6.90699768 C-1.01283011 4.9386419 -1.01187837 2.96900669 -1 1 C-0.67 0.67 -0.34 0.34 0 0 Z " fill="#0C7ACF" transform="translate(425,59)"/>
<path d="M0 0 C7.51806849 -0.44032071 13.84224277 0.71387222 21 3 C21 3.66 21 4.32 21 5 C20.34 5 19.68 5 19 5 C19 5.66 19 6.32 19 7 C18.34 7 17.68 7 17 7 C17 6.34 17 5.68 17 5 C14.3855567 4.46089034 11.77578649 3.96354999 9.140625 3.53515625 C8.18671875 3.37917969 7.2328125 3.22320312 6.25 3.0625 C5.28578125 2.90910156 4.3215625 2.75570313 3.328125 2.59765625 C2.55984375 2.40042969 1.7915625 2.20320312 1 2 C0.67 1.34 0.34 0.68 0 0 Z " fill="#3B86BB" transform="translate(352,0)"/>
<path d="M0 0 C10.06604235 -0.10849626 19.97112823 0.0232751 30 1 C30 1.33 30 1.66 30 2 C20.1 2.33 10.2 2.66 0 3 C0 2.01 0 1.02 0 0 Z " fill="#152A7F" transform="translate(75,417)"/>
<path d="M0 0 C1.32 0 2.64 0 4 0 C3.835 0.598125 3.67 1.19625 3.5 1.8125 C2.8885876 4.11344336 2.8885876 4.11344336 3 7 C-1.97093824 6.58846263 -6.44508386 6.20399168 -11 4 C-7.78548731 2.39274365 -4.56387464 2.94251815 -1 3 C-0.67 2.01 -0.34 1.02 0 0 Z " fill="#4E5C9B" transform="translate(71,412)"/>
<path d="M0 0 C0 6 0 6 -1.6875 8 C-4 10 -4 10 -6.5 11.375 C-9.64030088 13.41619557 -11.09118633 15.81864388 -13 19 C-13.33 18.34 -13.66 17.68 -14 17 C-9.70351846 10.87151618 -5.50510597 5.09222302 0 0 Z " fill="#7696B6" transform="translate(25,21)"/>
<path d="M0 0 C-0.33 0.99 -0.66 1.98 -1 3 C-12.22 2.67 -23.44 2.34 -35 2 C-35 1.67 -35 1.34 -35 1 C-30.66676008 0.83084529 -26.33339523 0.66512423 -22 0.5 C-20.77925781 0.45230469 -19.55851562 0.40460938 -18.30078125 0.35546875 C-12.19566329 0.12446429 -6.10950384 -0.06109504 0 0 Z " fill="#214E90" transform="translate(356,417)"/>
<path d="M0 0 C0 0.66 0 1.32 0 2 C-0.66 2 -1.32 2 -2 2 C-2 2.66 -2 3.32 -2 4 C-7.51208791 6.88131868 -7.51208791 6.88131868 -10.3125 7.5625 C-10.869375 7.706875 -11.42625 7.85125 -12 8 C-12.33 8.66 -12.66 9.32 -13 10 C-14.32 9.67 -15.64 9.34 -17 9 C-3.89320388 0 -3.89320388 0 0 0 Z " fill="#6C93BA" transform="translate(51,5)"/>
<path d="M0 0 C3.45201639 1.47721422 5.64961936 3.43794001 8.25 6.125 C8.95640625 6.84945313 9.6628125 7.57390625 10.390625 8.3203125 C11.18726563 9.15175781 11.18726563 9.15175781 12 10 C11.67 10.66 11.34 11.32 11 12 C10.443125 11.3503125 10.443125 11.3503125 9.875 10.6875 C6.70963984 7.83867586 3.00678226 6.33559409 -1 5 C-0.67 3.35 -0.34 1.7 0 0 Z " fill="#52A3DA" transform="translate(399,19)"/>
<path d="M0 0 C0.66 0 1.32 0 2 0 C2.66 0.99 3.32 1.98 4 3 C4.33 2.34 4.66 1.68 5 1 C6.65 1 8.3 1 10 1 C9.625 2.9375 9.625 2.9375 9 5 C6.59454362 6.20272819 5.05003047 6.10071472 2.375 6.0625 C1.14910156 6.04896484 1.14910156 6.04896484 -0.1015625 6.03515625 C-1.04128906 6.01775391 -1.04128906 6.01775391 -2 6 C-2 4 -2 4 0 2 C0 1.34 0 0.68 0 0 Z " fill="#122682" transform="translate(61,410)"/>
<path d="M0 0 C0 0.33 0 0.66 0 1 C-1.26457031 1.30744141 -1.26457031 1.30744141 -2.5546875 1.62109375 C-3.65039062 1.89050781 -4.74609375 2.15992188 -5.875 2.4375 C-7.51082031 2.83775391 -7.51082031 2.83775391 -9.1796875 3.24609375 C-11.92484721 3.8786478 -11.92484721 3.8786478 -14 5 C-13.67 3.35 -13.34 1.7 -13 0 C-7.85910687 -1.85072153 -5.04468729 -2.21474076 0 0 Z " fill="#2F639E" transform="translate(67,3)"/>
<path d="M0 0 C0.53109375 0.28617187 1.0621875 0.57234375 1.609375 0.8671875 C4.42895477 2.20326288 7.28410899 3.15786163 10.25 4.125 C11.86648437 4.65480469 11.86648437 4.65480469 13.515625 5.1953125 C14.33546875 5.46085937 15.1553125 5.72640625 16 6 C15.67 6.99 15.34 7.98 15 9 C8.72665364 7.49439687 3.72921392 5.59382088 0 0 Z " fill="#475594" transform="translate(30,398)"/>
<path d="M0 0 C3.96 1.65 7.92 3.3 12 5 C12 5.66 12 6.32 12 7 C3.585 5.02 3.585 5.02 -5 3 C-5 2.67 -5 2.34 -5 2 C-3.35 2 -1.7 2 0 2 C0 1.34 0 0.68 0 0 Z " fill="#4D79B3" transform="translate(153,204)"/>
<path d="M0 0 C3.30469874 0.38837272 5.89576006 1.92550945 8.75 3.5625 C9.94882813 4.24505859 9.94882813 4.24505859 11.171875 4.94140625 C11.77515625 5.29074219 12.3784375 5.64007813 13 6 C13 6.66 13 7.32 13 8 C9.14974121 7.39644592 6.13898841 6.23227397 2.6875 4.4375 C1.80449219 3.98246094 0.92148438 3.52742187 0.01171875 3.05859375 C-0.65214844 2.70925781 -1.31601563 2.35992187 -2 2 C-1.34 1.34 -0.68 0.68 0 0 Z " fill="#5380B9" transform="translate(174,189)"/>
<path d="M0 0 C0.66 0 1.32 0 2 0 C2.33 1.65 2.66 3.3 3 5 C-0.153368 5.70074844 -2.72724974 6 -6 6 C-6.33 5.01 -6.66 4.02 -7 3 C-3.535 2.505 -3.535 2.505 0 2 C0 1.34 0 0.68 0 0 Z " fill="#195398" transform="translate(384,403)"/>
<path d="M0 0 C0.33 0.99 0.66 1.98 1 3 C2.65 3.33 4.3 3.66 6 4 C6 4.66 6 5.32 6 6 C6.66 6.33 7.32 6.66 8 7 C4.44706507 8.14947895 3.20023331 8.0868937 -0.3125 6.5625 C-1.199375 6.046875 -2.08625 5.53125 -3 5 C-2.01 4.67 -1.02 4.34 0 4 C-0.33 3.34 -0.66 2.68 -1 2 C-0.67 1.34 -0.34 0.68 0 0 Z " fill="#314289" transform="translate(53,407)"/>
<path d="M0 0 C3.5945663 0.87867176 5.52875296 1.38250388 7.8125 4.375 C8.82437429 6.61177474 9.55447875 8.59418524 10 11 C6.8510285 9.63088196 4.9521513 8.1247864 2.75 5.5 C2.22921875 4.8915625 1.7084375 4.283125 1.171875 3.65625 C0 2 0 2 0 0 Z " fill="#475091" transform="translate(20,387)"/>
<path d="M0 0 C1 3 1 3 -0.328125 5.91796875 C-1.27945312 7.53638672 -1.27945312 7.53638672 -2.25 9.1875 C-2.87390625 10.27417969 -3.4978125 11.36085938 -4.140625 12.48046875 C-4.75421875 13.31191406 -5.3678125 14.14335937 -6 15 C-6.99 15 -7.98 15 -9 15 C-8.57692877 13.68277821 -8.13602514 12.37127336 -7.6875 11.0625 C-7.44386719 10.33160156 -7.20023437 9.60070312 -6.94921875 8.84765625 C-6 7 -6 7 -3 6 C-1.29144978 2.99992729 -1.29144978 2.99992729 0 0 Z " fill="#738FB4" transform="translate(420,367)"/>
<path d="M0 0 C4.47034438 3.95944788 7.7085099 8.44586447 10 14 C9.67 14.66 9.34 15.32 9 16 C8.67 15.01 8.34 14.02 8 13 C7.34 13 6.68 13 6 13 C5.731875 11.865625 5.46375 10.73125 5.1875 9.5625 C4.5996875 7.7990625 4.5996875 7.7990625 4 6 C3.01 5.67 2.02 5.34 1 5 C0.67 3.35 0.34 1.7 0 0 Z " fill="#5D95C6" transform="translate(411,31)"/>
<path d="M0 0 C0.66 0.33 1.32 0.66 2 1 C1.401875 1.70125 0.80375 2.4025 0.1875 3.125 C-2.1030424 5.93566331 -2.1030424 5.93566331 -3.5625 9.25 C-5 12 -5 12 -8 13 C-8.33 12.01 -8.66 11.02 -9 10 C-8.2575 9.278125 -7.515 8.55625 -6.75 7.8125 C-4.30709485 5.31407427 -2.1318953 2.76356798 0 0 Z " fill="#1D508D" transform="translate(18,31)"/>
<path d="M0 0 C0.66 0.33 1.32 0.66 2 1 C1.67386719 1.54527344 1.34773437 2.09054688 1.01171875 2.65234375 C-0.19672062 5.45648299 -0.23304513 7.51925747 -0.1875 10.5625 C-0.18105469 11.51253906 -0.17460938 12.46257812 -0.16796875 13.44140625 C-0.10061434 16.1204942 -0.10061434 16.1204942 1 19 C0.01 19.66 -0.98 20.32 -2 21 C-2 15.06 -2 9.12 -2 3 C-1.34 3 -0.68 3 0 3 C0 2.01 0 1.02 0 0 Z " fill="#114E9B" transform="translate(4,63)"/>
<path d="M0 0 C3.73487777 0.4979837 5.81237635 0.87491756 9 3 C9 3.66 9 4.32 9 5 C5.7 5 2.4 5 -1 5 C-1 4.34 -1 3.68 -1 3 C-0.34 3 0.32 3 1 3 C0.67 2.01 0.34 1.02 0 0 Z " fill="#4E92C1" transform="translate(376,5)"/>
<path d="M0 0 C3.94139078 1.66751148 6.7892812 4.22710649 10 7 C9.01 7.33 8.02 7.66 7 8 C4.73828125 6.78515625 4.73828125 6.78515625 2.3125 5.0625 C1.50425781 4.49660156 0.69601563 3.93070313 -0.13671875 3.34765625 C-1.05904297 2.68056641 -1.05904297 2.68056641 -2 2 C-1.34 1.34 -0.68 0.68 0 0 Z " fill="#4C7DB8" transform="translate(179,165)"/>
<path d="M0 0 C0.33 0 0.66 0 1 0 C0.67 2.97 0.34 5.94 0 9 C-1.32 9.33 -2.64 9.66 -4 10 C-3.4359146 6.05140217 -2.2568294 3.29120954 0 0 Z " fill="#5076A6" transform="translate(9,42)"/>
<path d="M0 0 C1.29640378 0.59393382 2.58698839 1.20057989 3.875 1.8125 C4.59429687 2.14894531 5.31359375 2.48539063 6.0546875 2.83203125 C8 4 8 4 10 7 C6.26512223 6.5020163 4.18762365 6.12508244 1 4 C1.33 3.34 1.66 2.68 2 2 C1.34 2 0.68 2 0 2 C0 1.34 0 0.68 0 0 Z " fill="#67A5CE" transform="translate(386,9)"/>
<path d="M0 0 C1.65 1.65 3.3 3.3 5 5 C4.67 5.99 4.34 6.98 4 8 C4.99 8 5.98 8 7 8 C7 9.65 7 11.3 7 13 C3.66366632 10.00880429 1.75472293 7.12359889 0 3 C0 2.01 0 1.02 0 0 Z " fill="#596495" transform="translate(7,366)"/>
<path d="M0 0 C0.66 0 1.32 0 2 0 C1.67 1.65 1.34 3.3 1 5 C0.34 5 -0.32 5 -1 5 C-1.28875 5.94875 -1.5775 6.8975 -1.875 7.875 C-3 11 -3 11 -5 13 C-4.67 10.36 -4.34 7.72 -4 5 C-2.68 4.67 -1.36 4.34 0 4 C0 2.68 0 1.36 0 0 Z " fill="#357CB1" transform="translate(421,362)"/>
<path d="M0 0 C1.32 0 2.64 0 4 0 C4 0.66 4 1.32 4 2 C5.32 2.66 6.64 3.32 8 4 C6.02 4.33 4.04 4.66 2 5 C2 4.67 2 4.34 2 4 C0.35 3.67 -1.3 3.34 -3 3 C-2.01 2.67 -1.02 2.34 0 2 C0 1.34 0 0.68 0 0 Z " fill="#3B6DB3" transform="translate(361,412)"/>
<path d="M0 0 C0.66 0 1.32 0 2 0 C2 0.99 2 1.98 2 3 C2.66 3 3.32 3 4 3 C3.34 4.65 2.68 6.3 2 8 C1.566875 7.0409375 1.566875 7.0409375 1.125 6.0625 C0.17176549 3.84793921 0.17176549 3.84793921 -2 3 C-1.34 2.01 -0.68 1.02 0 0 Z " fill="#17257A" transform="translate(8,362)"/>
<path d="M0 0 C0.33 0 0.66 0 1 0 C1 1.65 1 3.3 1 5 C1.99 5 2.98 5 4 5 C3.38722388 7.96175123 2.74627478 9.38058783 1 12 C-1.83022097 8.00439392 -0.76210446 4.57262677 0 0 Z " fill="#1B266A" transform="translate(1,338)"/>
<path d="M0 0 C0.99 0.33 1.98 0.66 3 1 C1.86695008 4.39914975 0.87481525 5.05254451 -2 7 C-2.66 6.67 -3.32 6.34 -4 6 C-4 5.34 -4 4.68 -4 4 C-3.01 4 -2.02 4 -1 4 C-0.67 2.68 -0.34 1.36 0 0 Z " fill="#587AA7" transform="translate(397,395)"/>
<path d="M0 0 C3.96 0.33 7.92 0.66 12 1 C12 1.33 12 1.66 12 2 C6.06 2.495 6.06 2.495 0 3 C0 2.01 0 1.02 0 0 Z " fill="#323D7F" transform="translate(75,417)"/>
<path d="M0 0 C2 2 2 2 2.125 5.625 C2.08375 6.73875 2.0425 7.8525 2 9 C0.5 7.8125 0.5 7.8125 -1 6 C-1.25 3.375 -1.25 3.375 -1 1 C-0.67 0.67 -0.34 0.34 0 0 Z " fill="#5A9FCA" transform="translate(425,59)"/>
<path d="M0 0 C1.98 0 3.96 0 6 0 C4.71034824 1.37562854 3.37310707 2.70766393 2 4 C1.34 4 0.68 4 0 4 C0 2.68 0 1.36 0 0 Z " fill="#779AC1" transform="translate(386,403)"/>
</svg>
